<svg width="299" height="180" viewBox="0 0 299 180" fill="none" xmlns="http://www.w3.org/2000/svg">
<path opacity="0.5" d="M233.112 84C233.112 129.839 195.928 167 150.056 167C104.185 167 67 129.839 67 84C67 38.161 104.185 1 150.056 1C195.928 1 233.112 38.161 233.112 84Z" stroke="#0054D2" stroke-width="2"/>
<g filter="url(#filter0_dd_304_5084)">
<ellipse cx="150.056" cy="84" rx="59.4544" ry="59.4146" fill="white"/>
</g>
<path d="M130.922 84L144.59 97.6585L171.925 70.3415" stroke="#0054D2" stroke-width="8" stroke-linecap="round" stroke-linejoin="round"/>
<path d="M283.611 119.99C283.829 118.924 285.352 118.924 285.57 119.99L286.903 126.509C286.984 126.902 287.29 127.208 287.683 127.289L294.203 128.62C295.27 128.838 295.27 130.362 294.203 130.58L287.683 131.912C287.29 131.992 286.984 132.299 286.903 132.691L285.57 139.21C285.352 140.276 283.829 140.276 283.611 139.21L282.277 132.691C282.197 132.299 281.89 131.992 281.498 131.912L274.977 130.58C273.911 130.362 273.911 128.838 274.977 128.62L281.498 127.289C281.89 127.208 282.197 126.902 282.277 126.509L283.611 119.99Z" fill="#303548"/>
<path opacity="0.2" d="M39.8477 160.79C40.0657 159.724 41.589 159.724 41.8071 160.79L42.7328 165.316C42.8131 165.709 43.1199 166.016 43.5124 166.096L48.0386 167.02C49.1051 167.238 49.1051 168.762 48.0386 168.98L43.5124 169.904C43.1199 169.984 42.8131 170.291 42.7328 170.684L41.8071 175.21C41.589 176.276 40.0657 176.276 39.8477 175.21L38.9219 170.684C38.8416 170.291 38.5348 169.984 38.1423 169.904L33.6161 168.98C32.5496 168.762 32.5496 167.238 33.6161 167.02L38.1423 166.096C38.5348 166.016 38.8416 165.709 38.9219 165.316L39.8477 160.79Z" fill="#303548"/>
<path opacity="0.2" d="M258.394 19.1905C258.612 18.1244 260.135 18.1244 260.353 19.1905L261.279 23.7167C261.359 24.1092 261.666 24.4159 262.058 24.4961L266.585 25.4206C267.651 25.6385 267.651 27.1623 266.585 27.3802L262.058 28.3047C261.666 28.3848 261.359 28.6915 261.279 29.084L260.353 33.6103C260.135 34.6764 258.612 34.6764 258.394 33.6103L257.468 29.084C257.388 28.6915 257.081 28.3848 256.688 28.3047L252.162 27.3802C251.096 27.1623 251.096 25.6385 252.162 25.4206L256.688 24.4961C257.081 24.4159 257.388 24.1092 257.468 23.7167L258.394 19.1905Z" fill="#303548"/>
<path d="M18.2331 21.5899C18.4512 20.5238 19.9745 20.5238 20.1926 21.5899L22.341 32.0943C22.4213 32.4868 22.7281 32.7935 23.1206 32.8737L33.6289 35.02C34.6954 35.2379 34.6954 36.7617 33.6289 36.9796L23.1206 39.126C22.7281 39.2061 22.4213 39.5128 22.341 39.9053L20.1926 50.4097C19.9745 51.4758 18.4512 51.4758 18.2331 50.4097L16.0847 39.9053C16.0044 39.5128 15.6976 39.2061 15.3051 39.126L4.7968 36.9796C3.73029 36.7617 3.73029 35.2379 4.79679 35.02L15.3051 32.8737C15.6976 32.7935 16.0044 32.4868 16.0847 32.0943L18.2331 21.5899Z" fill="#0054D2"/>
<defs>
<filter id="filter0_dd_304_5084" x="74.6016" y="16.5853" width="150.909" height="150.829" filterUnits="userSpaceOnUse" color-interpolation-filters="sRGB">
<feFlood flood-opacity="0" result="BackgroundImageFix"/>
<feColorMatrix in="SourceAlpha" type="matrix" values="0 0 0 0 0 0 0 0 0 0 0 0 0 0 0 0 0 0 127 0" result="hardAlpha"/>
<feOffset dy="8"/>
<feGaussianBlur stdDeviation="8"/>
<feColorMatrix type="matrix" values="0 0 0 0 0.2 0 0 0 0 0.223529 0 0 0 0 0.294118 0 0 0 0.1 0"/>
<feBlend mode="normal" in2="BackgroundImageFix" result="effect1_dropShadow_304_5084"/>
<feColorMatrix in="SourceAlpha" type="matrix" values="0 0 0 0 0 0 0 0 0 0 0 0 0 0 0 0 0 0 127 0" result="hardAlpha"/>
<feOffset dy="2"/>
<feGaussianBlur stdDeviation="2"/>
<feColorMatrix type="matrix" values="0 0 0 0 0.20092 0 0 0 0 0.221801 0 0 0 0 0.295833 0 0 0 0.06 0"/>
<feBlend mode="normal" in2="effect1_dropShadow_304_5084" result="effect2_dropShadow_304_5084"/>
<feBlend mode="normal" in="SourceGraphic" in2="effect2_dropShadow_304_5084" result="shape"/>
</filter>
</defs>
</svg>
