<svg width="25" height="24" viewBox="0 0 25 24" fill="none" xmlns="http://www.w3.org/2000/svg">
<path d="M19 17.25H7.42139C7.24574 17.25 7.07567 17.1884 6.94082 17.0758C6.80597 16.9633 6.7149 16.807 6.68348 16.6342L4.18015 2.86584C4.14873 2.69303 4.05766 2.53673 3.92281 2.42419C3.78796 2.31164 3.61789 2.25 3.44225 2.25H1.75" stroke="#63656D" stroke-width="2" stroke-linecap="round" stroke-linejoin="round"/>
<path d="M7.75 21C8.78553 21 9.625 20.1605 9.625 19.125C9.625 18.0895 8.78553 17.25 7.75 17.25C6.71447 17.25 5.875 18.0895 5.875 19.125C5.875 20.1605 6.71447 21 7.75 21Z" stroke="#63656D" stroke-width="2" stroke-linecap="round" stroke-linejoin="round"/>
<path d="M19 21C20.0355 21 20.875 20.1605 20.875 19.125C20.875 18.0895 20.0355 17.25 19 17.25C17.9645 17.25 17.125 18.0895 17.125 19.125C17.125 20.1605 17.9645 21 19 21Z" stroke="#63656D" stroke-width="2" stroke-linecap="round" stroke-linejoin="round"/>
<path d="M4.75 6H21.1013C21.2112 6 21.3197 6.02413 21.4192 6.07069C21.5187 6.11725 21.6068 6.1851 21.6772 6.26944C21.7475 6.35378 21.7986 6.45255 21.8266 6.55878C21.8546 6.665 21.8589 6.77608 21.8392 6.88416L20.612 13.6342C20.5806 13.807 20.4895 13.9633 20.3546 14.0758C20.2198 14.1884 20.0497 14.25 19.8741 14.25H6.25" stroke="#63656D" stroke-width="2" stroke-linecap="round" stroke-linejoin="round"/>
</svg>
